<?xml version="1.0" standalone="no"?>
<!DOCTYPE svg PUBLIC "-//W3C//DTD SVG 20010904//EN"
 "http://www.w3.org/TR/2001/REC-SVG-20010904/DTD/svg10.dtd">
<svg version="1.0" xmlns="http://www.w3.org/2000/svg"
 width="736.000000pt" height="341.000000pt" viewBox="0 0 736.000000 341.000000"
 preserveAspectRatio="xMidYMid meet">

<g transform="translate(0.000000,341.000000) scale(0.100000,-0.100000)"
fill="#000000" stroke="none">
<path d="M2480 3250 c-11 -15 -42 -72 -69 -126 -47 -95 -72 -148 -141 -299
-18 -38 -45 -99 -62 -135 -50 -108 -65 -142 -98 -215 -17 -38 -40 -88 -50
-110 -10 -22 -33 -71 -50 -110 -59 -129 -73 -160 -110 -240 -21 -44 -52 -111
-70 -150 -139 -304 -305 -605 -344 -622 -11 -6 -52 -8 -91 -5 -38 3 -149 5
-245 6 l-175 2 -13 39 c-28 84 16 173 109 220 60 31 73 31 86 3 37 -79 165
-168 241 -168 32 0 45 6 61 26 25 32 26 47 4 82 -52 85 -143 132 -254 132
l-49 0 0 45 c0 76 41 132 114 155 50 16 187 8 238 -14 48 -21 91 -20 131 2
l32 17 -96 3 -96 3 -90 83 c-118 109 -163 131 -254 122 -63 -6 -69 -4 -79 15
-7 11 -9 32 -5 47 5 22 4 24 -9 13 -9 -8 -16 -23 -16 -35 0 -21 -3 -21 -77
-14 -91 8 -78 4 -97 24 -12 12 -13 20 -6 35 14 25 45 24 81 -2 l29 -20 0 26
c0 15 14 47 31 72 l32 46 62 -6 c124 -12 252 -84 334 -187 45 -57 52 -54 66
28 5 33 11 42 22 38 62 -24 121 -7 153 46 24 39 25 73 5 121 -14 35 -76 87
-102 87 -9 0 -13 18 -13 60 0 33 -4 60 -10 60 -5 0 -10 7 -10 15 0 17 -32 49
-75 76 -46 29 -147 26 -204 -6 l-44 -25 -44 21 c-81 39 -181 10 -217 -63 -22
-43 -20 -66 10 -105 16 -21 33 -33 50 -33 30 0 32 -32 7 -85 -15 -31 -21 -35
-54 -35 -35 0 -69 20 -69 40 0 25 15 40 40 40 22 0 29 -5 32 -22 3 -20 4 -21
10 -5 9 20 -22 57 -47 57 -17 0 -65 -43 -65 -58 0 -5 9 -21 21 -36 15 -18 30
-26 53 -26 43 0 48 -7 31 -41 -8 -15 -15 -37 -15 -49 0 -24 1 -24 -40 -3 -30
14 -36 15 -59 2 -28 -16 -36 -38 -27 -73 8 -30 38 -44 124 -56 41 -6 83 -15
95 -22 12 -6 64 -12 117 -12 107 -1 117 -5 209 -81 l61 -50 -83 -6 c-79 -5
-144 -25 -170 -51 -27 -27 -47 -83 -47 -132 l0 -51 -48 -18 c-101 -35 -155
-106 -156 -202 0 -42 5 -68 18 -87 20 -30 15 -48 -14 -48 -10 0 -45 -8 -78
-19 -70 -21 -79 -18 -124 47 -30 43 -33 54 -33 120 0 84 2 87 82 96 66 8 104
26 127 61 22 33 14 45 -30 45 -41 0 -96 -21 -140 -55 -50 -38 -96 -12 -183
105 -61 83 -123 143 -159 154 -12 4 -20 12 -17 17 10 15 48 10 89 -12 21 -11
40 -18 43 -16 4 4 -20 26 -97 87 l-25 19 31 1 c21 0 47 -14 92 -50 34 -27 62
-48 62 -45 0 3 -7 22 -16 43 -20 47 -44 125 -40 129 16 17 61 -53 81 -124 4
-13 11 -23 16 -23 5 0 9 10 9 23 0 39 11 45 53 33 46 -13 53 -30 13 -34 -27
-3 -28 -6 -23 -43 7 -53 50 -109 83 -109 25 0 25 1 22 66 -2 39 1 68 7 71 14
5 77 -95 87 -137 7 -33 7 -33 4 8 -4 42 -62 172 -78 172 -13 0 -48 -39 -48
-54 0 -7 5 -28 11 -46 13 -37 -2 -56 -32 -40 -14 8 -45 71 -37 74 22 7 43 27
49 44 8 20 4 25 -37 42 -55 24 -63 24 -70 5 -11 -27 -29 -16 -48 31 -20 49
-54 78 -80 68 -18 -7 -16 -21 15 -91 25 -54 24 -61 -4 -36 -48 44 -113 57
-137 28 -10 -12 -6 -18 22 -35 l33 -20 -28 0 c-61 0 -92 -42 -39 -53 45 -9
117 -72 165 -146 50 -76 108 -137 139 -147 13 -4 17 -11 12 -22 -3 -10 -9 -40
-11 -68 -6 -64 22 -130 74 -174 l38 -31 -42 -35 c-37 -31 -43 -41 -43 -74 0
-53 35 -92 123 -135 109 -53 210 -76 372 -82 201 -8 317 12 402 70 79 55 97
112 69 220 -23 87 -15 112 119 392 31 66 80 167 107 225 79 164 482 974 542
1085 88 167 138 257 179 325 22 36 41 68 43 71 2 4 -30 13 -72 21 l-75 15 -19
-27z m60 -89 c0 -33 -42 -76 -64 -68 -26 10 -20 63 10 86 32 25 54 17 54 -18z
m-1135 -626 c17 -9 45 -30 61 -46 27 -28 29 -37 30 -107 1 -56 5 -77 15 -80
105 -30 152 -100 118 -175 -19 -41 -78 -59 -113 -34 -16 12 -16 15 -1 51 18
43 16 51 -14 41 -17 -5 -21 -15 -21 -46 0 -32 -19 -88 -36 -108 -2 -2 -35 26
-73 61 -83 77 -157 109 -268 116 -62 4 -73 7 -73 23 0 10 4 20 9 23 5 4 12 24
16 45 4 22 13 45 21 52 19 15 18 48 -3 71 -25 28 -33 22 -33 -28 0 -41 -2 -45
-21 -42 -12 2 -31 15 -42 30 -58 78 71 159 180 113 35 -15 38 -14 72 9 70 48
120 57 176 31z m99 -380 c-4 -8 -8 -15 -10 -15 -2 0 -4 7 -4 15 0 8 4 15 10
15 5 0 7 -7 4 -15z m89 -392 c-7 -2 -21 -2 -30 0 -10 3 -4 5 12 5 17 0 24 -2
18 -5z m-714 -229 c-18 -22 -58 -41 -103 -49 -31 -6 -38 -5 -34 6 6 20 87 59
121 59 26 0 28 -2 16 -16z m466 -19 c102 -59 125 -145 38 -145 -47 0 -104 32
-148 82 -44 51 -57 80 -41 90 19 13 109 -3 151 -27z m55 -307 c97 -16 165 -44
199 -84 39 -44 41 -91 6 -131 -23 -26 -24 -27 -25 -7 0 29 -37 66 -90 91 -109
52 -368 79 -501 52 -30 -6 -63 -12 -74 -13 -34 -5 -98 -36 -122 -58 -13 -12
-23 -33 -23 -46 0 -25 0 -25 -21 -6 -12 10 -25 29 -30 42 -20 53 57 126 108
103 33 -15 43 -13 14 3 -23 13 -23 13 18 29 69 28 115 31 147 11 l29 -18 -19
21 -18 22 63 4 c87 6 260 -2 339 -15z m-260 -118 c-239 -9 -342 -47 -284 -104
8 -9 11 -16 5 -16 -13 0 -51 36 -51 48 0 11 28 36 58 51 42 22 106 29 272 28
l165 -1 -165 -6z m241 -51 c61 -13 97 -43 78 -65 -6 -8 -19 -14 -27 -14 -13 0
-12 3 3 14 18 13 17 14 -10 32 -16 10 -58 24 -94 30 -42 8 -54 12 -34 13 18 1
55 -4 84 -10z"/>
<path d="M2493 3168 c-16 -21 -23 -47 -13 -53 8 -5 40 43 40 60 0 10 -17 5
-27 -7z"/>
<path d="M2625 3158 c-159 -278 -282 -511 -485 -918 -200 -399 -230 -463 -229
-480 0 -8 5 -1 11 15 6 17 14 32 18 35 3 3 33 59 66 125 32 66 61 122 64 125
3 3 35 64 71 135 116 229 250 483 369 701 18 32 59 105 92 161 40 69 58 110
56 128 -3 23 -6 21 -33 -27z"/>
<path d="M5130 2490 l0 -460 95 0 94 0 3 151 3 151 94 -147 c52 -81 99 -149
106 -151 6 -3 59 -3 117 -2 l106 3 -115 158 c-63 87 -112 165 -109 172 2 7 50
71 105 143 56 72 101 133 101 136 0 3 -51 6 -112 6 l-113 0 -90 -142 -90 -142
-3 292 -2 292 -95 0 -95 0 0 -460z"/>
<path d="M3131 2905 c-176 -40 -303 -165 -341 -336 -18 -82 -9 -240 19 -311
26 -66 103 -157 165 -193 97 -57 283 -70 424 -30 l62 18 0 94 0 95 -25 -16
c-13 -9 -50 -23 -82 -31 -210 -55 -366 58 -366 265 0 128 68 236 169 271 60
20 179 16 244 -10 30 -11 56 -21 58 -21 1 0 2 42 2 94 l0 94 -52 12 c-88 19
-207 21 -277 5z"/>
<path d="M3822 2659 c-118 -20 -218 -104 -248 -207 -26 -87 -16 -212 21 -281
60 -110 176 -167 322 -158 136 8 239 71 285 176 25 55 35 197 19 257 -25 92
-112 181 -201 204 -59 15 -142 19 -198 9z m149 -162 c49 -33 63 -69 63 -157
-1 -79 -15 -119 -54 -155 -17 -16 -36 -20 -85 -20 -69 0 -93 14 -123 70 -24
46 -22 160 4 209 38 73 129 98 195 53z"/>
<path d="M4588 2659 c-182 -27 -293 -194 -258 -389 14 -78 31 -113 79 -163 42
-45 77 -65 146 -83 91 -25 211 -13 290 29 37 19 98 82 118 122 63 129 41 303
-51 398 -48 51 -95 74 -173 87 -71 11 -71 11 -151 -1z m141 -157 c50 -25 71
-72 71 -157 -1 -124 -47 -185 -140 -185 -89 0 -131 50 -137 165 -4 59 -1 77
19 115 25 49 72 80 123 80 17 0 45 -8 64 -18z"/>
<path d="M1043 2163 c9 -2 23 -2 30 0 6 3 -1 5 -18 5 -16 0 -22 -2 -12 -5z"/>
<path d="M1236 2122 c-3 -4 8 -13 25 -19 16 -6 27 -7 24 -2 -10 15 -43 30 -49
21z"/>
<path d="M1886 1725 c-9 -26 -7 -32 5 -12 6 10 9 21 6 23 -2 3 -7 -2 -11 -11z"/>
<path d="M6610 830 l0 -460 95 0 95 0 0 151 c0 82 4 148 8 145 5 -3 50 -71
101 -151 l93 -145 114 0 c63 0 114 2 114 5 0 3 -49 71 -108 152 -59 82 -111
154 -115 160 -5 8 34 67 102 155 l110 143 -112 3 c-98 3 -114 1 -126 -15 -7
-10 -50 -74 -95 -143 l-81 -125 -3 293 -2 292 -95 0 -95 0 0 -460z"/>
<path d="M4290 806 l0 -436 215 0 c235 0 272 6 352 61 55 39 93 114 93 188 0
100 -57 178 -151 205 l-42 13 46 26 c157 92 151 275 -13 351 -41 19 -67 21
-272 24 l-228 4 0 -436z m376 269 c59 -38 56 -121 -5 -162 -27 -18 -48 -23
-102 -23 l-69 0 0 106 0 107 76 -6 c44 -3 86 -12 100 -22z m43 -369 c26 -25
31 -37 31 -79 0 -41 -5 -53 -30 -77 -34 -31 -67 -40 -156 -40 l-64 0 0 116 0
116 94 -4 c89 -3 97 -5 125 -32z"/>
<path d="M1691 1044 c-1 -42 -45 -119 -76 -130 -7 -3 -26 -31 -42 -62 -34 -68
-132 -171 -190 -201 -62 -31 -73 -26 -20 10 58 38 148 136 164 178 7 19 7 31
1 31 -17 0 -48 -20 -48 -31 0 -19 -88 -124 -119 -142 -44 -26 -46 -21 -8 26
19 23 39 57 45 75 l11 32 -161 0 c-88 0 -177 4 -197 9 -20 6 -67 17 -105 26
-81 19 -171 57 -205 88 l-24 22 7 -27 c12 -51 91 -174 151 -234 38 -39 85 -73
130 -95 68 -33 72 -34 195 -34 119 0 128 1 191 31 91 43 192 141 249 239 51
91 75 171 61 206 -9 21 -10 19 -10 -17z"/>
<path d="M5302 999 c-60 -10 -115 -36 -161 -75 -126 -106 -132 -362 -10 -483
98 -98 305 -120 434 -46 56 33 90 71 122 140 23 52 27 73 27 150 0 108 -22
167 -87 233 -68 70 -200 103 -325 81z m144 -154 c52 -22 78 -86 72 -179 -8
-118 -49 -166 -140 -166 -96 0 -144 70 -136 199 4 80 24 115 79 143 42 22 78
23 125 3z"/>
<path d="M6072 999 c-104 -18 -186 -78 -233 -169 -18 -34 -24 -65 -27 -135 -5
-117 19 -188 88 -255 65 -63 129 -85 250 -85 81 0 103 4 151 26 116 55 170
139 177 279 5 99 -6 147 -48 213 -63 100 -210 152 -358 126z m136 -153 c44
-23 62 -50 74 -112 24 -134 -31 -234 -130 -234 -57 0 -104 26 -128 72 -26 49
-24 161 4 214 34 66 116 93 180 60z"/>
<path d="M1040 567 c74 -36 85 -46 88 -70 2 -16 -4 -39 -12 -52 -19 -29 -21
-71 -3 -82 6 -4 30 -8 51 -9 22 0 36 1 30 3 -11 4 -11 143 0 161 11 17 30 15
56 -8 27 -24 34 -25 27 -6 -3 8 -2 16 2 18 5 2 11 13 15 25 7 21 5 21 -26 12
-18 -5 -48 -9 -66 -9 -32 0 -151 29 -206 50 -57 21 -38 7 44 -33z m127 -79
c-3 -8 -6 -5 -6 6 -1 11 2 17 5 13 3 -3 4 -12 1 -19z"/>
<path d="M1296 524 c-9 -24 -7 -27 9 -10 17 17 19 26 6 26 -5 0 -12 -7 -15
-16z"/>
<path d="M1191 454 c0 -11 3 -14 6 -6 3 7 2 16 -1 19 -3 4 -6 -2 -5 -13z"/>
<path d="M1201 418 c0 -7 4 -22 9 -33 7 -17 9 -15 9 13 1 17 -3 32 -9 32 -5 0
-10 -6 -9 -12z"/>
</g>
</svg>
